<mxfile host="app.diagrams.net" agent="Mozilla/5.0 (X11; Linux x86_64; rv:132.0) Gecko/20100101 Firefox/132.0" version="26.0.2">
  <diagram name="Page-1" id="e7e014a7-5840-1c2e-5031-d8a46d1fe8dd">
    <mxGraphModel dx="1189" dy="996" grid="1" gridSize="10" guides="1" tooltips="1" connect="1" arrows="1" fold="1" page="1" pageScale="1" pageWidth="1169" pageHeight="826" background="none" math="0" shadow="0">
      <root>
        <mxCell id="0" />
        <mxCell id="1" parent="0" />
        <mxCell id="2" value="QUELLSYSTEME" style="swimlane;whiteSpace=wrap;startSize=23;" parent="1" vertex="1">
          <mxGeometry x="140" y="120" width="300" height="560" as="geometry" />
        </mxCell>
        <mxCell id="0BRZqSTPL-s-2M6EmYey-49" value="Temperatursensor" style="rounded=0;whiteSpace=wrap;html=1;" vertex="1" parent="2">
          <mxGeometry x="62.75" y="243" width="154.5" height="100" as="geometry" />
        </mxCell>
        <mxCell id="0BRZqSTPL-s-2M6EmYey-72" value="Publishes" style="text;strokeColor=none;fillColor=none;html=1;fontSize=6;fontStyle=1;verticalAlign=middle;align=center;" vertex="1" parent="2">
          <mxGeometry x="196" y="280" width="100" height="40" as="geometry" />
        </mxCell>
        <mxCell id="3" value="STREAM PROCESSING SYSTEMS" style="swimlane;whiteSpace=wrap;startSize=23;" parent="1" vertex="1">
          <mxGeometry x="440" y="120" width="280" height="560" as="geometry" />
        </mxCell>
        <mxCell id="0BRZqSTPL-s-2M6EmYey-59" value="Write Data" style="edgeStyle=orthogonalEdgeStyle;rounded=0;orthogonalLoop=1;jettySize=auto;html=1;" edge="1" parent="3" source="0BRZqSTPL-s-2M6EmYey-54">
          <mxGeometry relative="1" as="geometry">
            <mxPoint x="340" y="290" as="targetPoint" />
          </mxGeometry>
        </mxCell>
        <mxCell id="0BRZqSTPL-s-2M6EmYey-68" value="" style="edgeStyle=orthogonalEdgeStyle;rounded=0;orthogonalLoop=1;jettySize=auto;html=1;" edge="1" parent="3" source="0BRZqSTPL-s-2M6EmYey-54" target="0BRZqSTPL-s-2M6EmYey-66">
          <mxGeometry relative="1" as="geometry" />
        </mxCell>
        <mxCell id="0BRZqSTPL-s-2M6EmYey-54" value="Spring Boot Kafka Consumer" style="rounded=0;whiteSpace=wrap;html=1;" vertex="1" parent="3">
          <mxGeometry x="67" y="120" width="154.5" height="340" as="geometry" />
        </mxCell>
        <mxCell id="0BRZqSTPL-s-2M6EmYey-55" value="In-Memory DB" style="shape=cylinder3;whiteSpace=wrap;html=1;boundedLbl=1;backgroundOutline=1;size=15;" vertex="1" parent="3">
          <mxGeometry x="100" y="340" width="90" height="60" as="geometry" />
        </mxCell>
        <mxCell id="0BRZqSTPL-s-2M6EmYey-66" value="&lt;div&gt;Kafka&lt;/div&gt;&lt;div&gt;Topic&lt;/div&gt;" style="whiteSpace=wrap;html=1;aspect=fixed;" vertex="1" parent="3">
          <mxGeometry x="-20" y="270" width="40" height="40" as="geometry" />
        </mxCell>
        <mxCell id="0BRZqSTPL-s-2M6EmYey-71" value="Subscribes" style="text;strokeColor=none;fillColor=none;html=1;fontSize=6;fontStyle=1;verticalAlign=middle;align=center;" vertex="1" parent="3">
          <mxGeometry x="-4" y="280" width="100" height="40" as="geometry" />
        </mxCell>
        <mxCell id="0BRZqSTPL-s-2M6EmYey-41" value="DATENHALTUNG" style="swimlane;whiteSpace=wrap" vertex="1" parent="1">
          <mxGeometry x="720" y="120" width="280" height="560" as="geometry" />
        </mxCell>
        <mxCell id="0BRZqSTPL-s-2M6EmYey-58" value="Apache Hadoop" style="rounded=0;whiteSpace=wrap;html=1;" vertex="1" parent="0BRZqSTPL-s-2M6EmYey-41">
          <mxGeometry x="62.75" y="120" width="154.5" height="340" as="geometry" />
        </mxCell>
        <mxCell id="0BRZqSTPL-s-2M6EmYey-62" value="MapReduce-Jobs" style="rounded=0;whiteSpace=wrap;html=1;" vertex="1" parent="0BRZqSTPL-s-2M6EmYey-41">
          <mxGeometry x="105" y="160" width="70" height="50" as="geometry" />
        </mxCell>
        <mxCell id="0BRZqSTPL-s-2M6EmYey-63" value="Storage System" style="shape=cylinder3;whiteSpace=wrap;html=1;boundedLbl=1;backgroundOutline=1;size=15;" vertex="1" parent="0BRZqSTPL-s-2M6EmYey-41">
          <mxGeometry x="95" y="340" width="90" height="60" as="geometry" />
        </mxCell>
        <mxCell id="0BRZqSTPL-s-2M6EmYey-47" value="PRÃ„SENTATIONS- und ANWENDUNGSSCHICHT" style="swimlane;whiteSpace=wrap" vertex="1" parent="1">
          <mxGeometry x="1000" y="120" width="280" height="560" as="geometry" />
        </mxCell>
        <mxCell id="0BRZqSTPL-s-2M6EmYey-61" value="Read processed Data" style="edgeStyle=orthogonalEdgeStyle;rounded=0;orthogonalLoop=1;jettySize=auto;html=1;" edge="1" parent="0BRZqSTPL-s-2M6EmYey-47" source="0BRZqSTPL-s-2M6EmYey-60">
          <mxGeometry relative="1" as="geometry">
            <mxPoint x="-60" y="290" as="targetPoint" />
          </mxGeometry>
        </mxCell>
        <mxCell id="0BRZqSTPL-s-2M6EmYey-60" value="Realtime-Dashboard" style="rounded=0;whiteSpace=wrap;html=1;" vertex="1" parent="0BRZqSTPL-s-2M6EmYey-47">
          <mxGeometry x="80" y="120" width="154.5" height="340" as="geometry" />
        </mxCell>
        <mxCell id="0BRZqSTPL-s-2M6EmYey-65" value="Read Realtime-Data" style="edgeStyle=orthogonalEdgeStyle;rounded=0;orthogonalLoop=1;jettySize=auto;html=1;exitX=0.5;exitY=1;exitDx=0;exitDy=0;entryX=0.439;entryY=1.001;entryDx=0;entryDy=0;entryPerimeter=0;" edge="1" parent="1" source="0BRZqSTPL-s-2M6EmYey-60" target="0BRZqSTPL-s-2M6EmYey-54">
          <mxGeometry relative="1" as="geometry">
            <mxPoint x="570" y="700" as="targetPoint" />
          </mxGeometry>
        </mxCell>
        <mxCell id="0BRZqSTPL-s-2M6EmYey-70" style="edgeStyle=orthogonalEdgeStyle;rounded=0;orthogonalLoop=1;jettySize=auto;html=1;entryX=0;entryY=0.575;entryDx=0;entryDy=0;entryPerimeter=0;exitX=1.003;exitY=0.473;exitDx=0;exitDy=0;exitPerimeter=0;" edge="1" parent="1" source="0BRZqSTPL-s-2M6EmYey-49">
          <mxGeometry relative="1" as="geometry">
            <mxPoint x="377.25" y="409.9999999999999" as="sourcePoint" />
            <mxPoint x="420" y="409.9999999999999" as="targetPoint" />
          </mxGeometry>
        </mxCell>
      </root>
    </mxGraphModel>
  </diagram>
</mxfile>
